Coordinates
nRows=237
nColumns=2
inDegrees=yes
endheader
time	ankle_angle_r	
3.42641	 -5.391264	
3.45968	 -5.396096	
3.49294	 -5.397200	
3.52621	 -5.396670	
3.55948	 -5.395771	
3.59274	 -5.393165	
3.62601	 -5.388712	
3.65927	 -5.381003	
3.69254	 -5.369225	
3.72581	 -5.357027	
3.75907	 -5.347739	
3.79234	 -5.343719	
3.8256	 -5.344646	
3.85887	 -5.342022	
3.89214	 -5.331612	
3.9254	 -5.323178	
3.95867	 -5.324066	
3.99194	 -5.329396	
4.0252	 -5.332241	
4.05847	 -5.329838	
4.09173	 -5.323770	
4.125	 -5.319541	
4.15827	 -5.319702	
4.19153	 -5.319295	
4.2248	 -5.312863	
4.25806	 -5.302582	
4.29133	 -5.298116	
4.3246	 -5.305611	
4.35786	 -5.317177	
4.39113	 -5.322844	
4.4244	 -5.325919	
4.45766	 -5.331939	
4.49093	 -5.337663	
4.52419	 -5.337562	
4.55746	 -5.329564	
4.59073	 -5.319114	
4.62399	 -5.316325	
4.65726	 -5.322523	
4.69052	 -5.329197	
4.72379	 -5.329979	
4.75706	 -5.326022	
4.79032	 -5.324975	
4.82359	 -5.333452	
4.85685	 -5.346377	
4.89012	 -5.353150	
4.92339	 -5.353919	
4.95665	 -5.359516	
4.98992	 -5.374904	
5.02319	 -5.388216	
5.05645	 -5.386908	
5.08972	 -5.380582	
5.12298	 -5.387054	
5.15625	 -5.405062	
5.18952	 -5.420253	
5.22278	 -5.424970	
5.25605	 -5.421915	
5.28931	 -5.418416	
5.32258	 -5.419210	
5.35585	 -5.423011	
5.38911	 -5.427177	
5.42238	 -5.430218	
5.45565	 -5.430942	
5.48891	 -5.430839	
5.52218	 -5.431378	
5.55544	 -5.430581	
5.58871	 -5.429403	
5.62198	 -5.432348	
5.65524	 -5.439457	
5.68851	 -5.446559	
5.72177	 -5.449711	
5.75504	 -5.448052	
5.78831	 -5.445624	
5.82157	 -5.445117	
5.85484	 -5.443558	
5.8881	 -5.439906	
5.92137	 -5.435946	
5.95464	 -5.430741	
5.9879	 -5.424797	
6.02117	 -5.419207	
6.05444	 -5.411182	
6.0877	 -5.403462	
6.12097	 -5.403314	
6.15423	 -5.406880	
6.1875	 -5.403293	
6.22077	 -5.390758	
6.25403	 -5.376745	
6.2873	 -5.367769	
6.32056	 -5.363430	
6.35383	 -5.358387	
6.3871	 -5.350819	
6.42036	 -5.346254	
6.45363	 -5.351305	
6.4869	 -5.368781	
6.52016	 -5.393509	
6.55343	 -5.412726	
6.58669	 -5.420140	
6.61996	 -5.419443	
6.65323	 -5.413833	
6.68649	 -5.405950	
6.71976	 -5.398675	
6.75302	 -5.392944	
6.78629	 -5.391164	
6.81956	 -5.394605	
6.85282	 -5.400134	
6.88609	 -5.403687	
6.91935	 -5.402263	
6.95262	 -5.398190	
6.98589	 -5.397855	
7.01915	 -5.400816	
7.05242	 -5.402303	
7.08569	 -5.401613	
7.11895	 -5.397402	
7.15222	 -5.388489	
7.18548	 -5.380161	
7.21875	 -5.377582	
7.25202	 -5.379805	
7.28528	 -5.382981	
7.31855	 -5.384129	
7.35181	 -5.384500	
7.38508	 -5.385990	
7.41835	 -5.384003	
7.45161	 -5.373102	
7.48488	 -5.355737	
7.51815	 -5.339541	
7.55141	 -5.331847	
7.58468	 -5.334409	
7.61794	 -5.338986	
7.65121	 -5.336132	
7.68448	 -5.326819	
7.71774	 -5.318529	
7.75101	 -5.316397	
7.78427	 -5.319785	
7.81754	 -5.324260	
7.85081	 -5.327145	
7.88407	 -5.328845	
7.91734	 -5.330264	
7.9506	 -5.333230	
7.98387	 -5.339000	
8.01714	 -5.343259	
8.0504	 -5.342065	
8.08367	 -5.340054	
8.11694	 -5.340838	
8.1502	 -5.340773	
8.18347	 -5.338149	
8.21673	 -5.334890	
8.25	 -5.333401	
8.28327	 -5.336286	
8.31653	 -5.340820	
8.3498	 -5.340679	
8.38306	 -5.334747	
8.41633	 -5.325436	
8.4496	 -5.316384	
8.48286	 -5.312474	
8.51613	 -5.316240	
8.5494	 -5.329094	
8.58266	 -5.346871	
8.61593	 -5.355467	
8.64919	 -5.349827	
8.68246	 -5.344012	
8.71573	 -5.350303	
8.74899	 -5.366658	
8.78226	 -5.384221	
8.81552	 -5.396083	
8.84879	 -5.403621	
8.88206	 -5.411174	
8.91532	 -5.416561	
8.94859	 -5.417231	
8.98185	 -5.415147	
9.01512	 -5.412699	
9.04839	 -5.412875	
9.08165	 -5.416897	
9.11492	 -5.421881	
9.14819	 -5.426141	
9.18145	 -5.429040	
9.21472	 -5.428733	
9.24798	 -5.427352	
9.28125	 -5.428691	
9.31452	 -5.431306	
9.34778	 -5.432534	
9.38105	 -5.432281	
9.41431	 -5.431311	
9.44758	 -5.431106	
9.48085	 -5.432089	
9.51411	 -5.432636	
9.54738	 -5.431319	
9.58065	 -5.426990	
9.61391	 -5.420564	
9.64718	 -5.416843	
9.68044	 -5.416424	
9.71371	 -5.411967	
9.74698	 -5.400834	
9.78024	 -5.389085	
9.81351	 -5.380301	
9.84677	 -5.374914	
9.88004	 -5.373886	
9.91331	 -5.374393	
9.94657	 -5.372416	
9.97984	 -5.367379	
10.0131	 -5.360473	
10.0464	 -5.355297	
10.0796	 -5.354731	
10.1129	 -5.355477	
10.1462	 -5.354137	
10.1794	 -5.353061	
10.2127	 -5.355212	
10.246	 -5.360973	
10.2792	 -5.367864	
10.3125	 -5.371860	
10.3458	 -5.374238	
10.379	 -5.379780	
10.4123	 -5.387799	
10.4456	 -5.393938	
10.4788	 -5.395068	
10.5121	 -5.390145	
10.5454	 -5.382798	
10.5786	 -5.380161	
10.6119	 -5.386232	
10.6452	 -5.396853	
10.6784	 -5.402516	
10.7117	 -5.400371	
10.745	 -5.397523	
10.7782	 -5.397945	
10.8115	 -5.398476	
10.8448	 -5.396971	
10.878	 -5.393277	
10.9113	 -5.388893	
10.9446	 -5.387076	
10.9778	 -5.387616	
11.0111	 -5.387231	
11.0444	 -5.382492	
11.0776	 -5.370184	
11.1109	 -5.354577	
11.1442	 -5.347412	
11.1774	 -5.351238	
11.2107	 -5.356502	
11.244	 -5.357453	
11.2772	 -5.355976	
